Coordinates
version=1
nRows=4
nColumns=63
inDegrees=yes

Units are S.I. units (second, meters, Newtons, ...)
If the header above contains a line with 'inDegrees', this indicates whether rotational values are in degrees (yes) or radians (no).

endheader
time	pelvis_tilt	pelvis_list	pelvis_rotation	pelvis_tx	pelvis_ty	pelvis_tz	hip_flexion_r	hip_adduction_r	hip_rotation_r	knee_angle_r	knee_angle_r_beta	ankle_angle_r	subtalar_angle_r	mtp_angle_r	hip_flexion_l	hip_adduction_l	hip_rotation_l	knee_angle_l	knee_angle_l_beta	ankle_angle_l	subtalar_angle_l	mtp_angle_l	L5_S1_Flex_Ext	L5_S1_Lat_Bending	L5_S1_axial_rotation	L4_L5_Flex_Ext	L4_L5_Lat_Bending	L4_L5_axial_rotation	L3_L4_Flex_Ext	L3_L4_Lat_Bending	L3_L4_axial_rotation	L2_L3_Flex_Ext	L2_L3_Lat_Bending	L2_L3_axial_rotation	L1_L2_Flex_Ext	L1_L2_Lat_Bending	L1_L2_axial_rotation	L1_T12_Flex_Ext	L1_T12_Lat_Bending	L1_T12_axial_rotation	Abs_r3	Abs_r2	Abs_r1	Abs_t1	Abs_t2	neck_flexion	neck_bending	neck_rotation	arm_flex_r	arm_add_r	arm_rot_r	elbow_flex_r	pro_sup_r	wrist_flex_r	wrist_dev_r	arm_flex_l	arm_add_l	arm_rot_l	elbow_flex_l	pro_sup_l	wrist_flex_l	wrist_dev_l
      0.00800000	    -40.74170476	      6.03103725	      2.72240522	     -0.15937115	      1.01212382	      0.03749853	     73.88304565	     -7.21470940	      2.94053474	     44.70465247	      0.78024338	     -4.00593543	    -14.60718339	      0.00000000	    118.96841048	     -4.49087770	     -1.41713436	    112.99176151	      1.97207827	      5.88669359	    -12.89561494	      0.00000000	     -0.05603498	     -0.91030618	     -0.40167963	     -0.10406255	     -1.21070722	     -0.42678460	     -0.09205986	     -2.21331844	     -0.42678460	     -0.06404237	     -2.21331844	     -0.35146967	     -0.05203408	     -1.85629636	     -0.32636470	     -0.03201839	     -1.41006427	     -0.30125972	     -0.40025223	    -10.29756554	     -2.23402159	      0.00000000	      0.00000000	      0.00000000	      0.00000000	      0.00000001	     66.72615934	     -7.28457866	     12.08078140	     34.94240509	     64.00873734	      0.00000000	      3.81853237	     71.31756425	    -11.30797328	     31.89791595	     32.60636647	     68.90242310	      0.00000000	      3.81853237
      0.01700000	    -41.14690038	      6.71095401	      2.46911209	     -0.16156120	      1.01333849	      0.03915263	     75.19982771	     -7.16540757	      4.06847194	     48.80045321	      0.85172858	     -5.29033558	    -13.78505961	      0.00000000	    119.67721077	     -4.62793453	     -1.47603631	    110.67847960	      1.93170388	      4.64027860	    -16.06988392	      0.00000000	     -0.05592834	     -1.01693699	     -0.38077769	     -0.10386451	     -1.35252620	     -0.40457630	     -0.09188466	     -2.47258061	     -0.40457630	     -0.06392050	     -2.47258061	     -0.33318048	     -0.05193505	     -2.07373792	     -0.30938188	     -0.03195745	     -1.57523540	     -0.28558327	     -0.39949051	    -11.50379467	     -2.11777130	      0.00000000	      0.00000000	      0.00000000	      0.00000000	      0.00000001	     67.82424184	     -6.39018123	     12.17875064	     33.21953187	     63.79901144	      0.00000000	      3.87563712	     71.61352382	    -11.86857825	     32.28408255	     33.93954375	     68.71862879	      0.00000000	      3.87563712
      0.02500000	    -41.21594022	      6.62510160	      2.36783828	     -0.16200497	      1.01371857	      0.03907384	     75.63992284	     -7.12698665	      4.09388844	     50.21288215	      0.87638012	     -5.71986740	    -13.84482309	      0.00000000	    119.62124909	     -4.46505032	     -1.44725012	    109.62346172	      1.91329034	      4.37935667	    -16.57632492	      0.00000000	     -0.05647132	     -1.00725509	     -0.36611303	     -0.10487288	     -1.33964927	     -0.38899509	     -0.09277672	     -2.44904003	     -0.38899509	     -0.06454107	     -2.44904003	     -0.32034890	     -0.05243926	     -2.05399458	     -0.29746683	     -0.03226771	     -1.56023814	     -0.27458477	     -0.40336896	    -11.39427104	     -2.03621082	      0.00000000	      0.00000000	      0.00000000	      0.00000000	      0.00000001	     67.85451529	     -6.45976189	     12.24526021	     33.42978512	     63.72050532	      0.00000000	      3.89691085	     71.74067798	    -11.84194839	     32.45368452	     33.80834892	     68.69270044	      0.00000000	      3.89691085
      0.03300000	    -41.26239660	      6.49047061	      2.13915540	     -0.16240704	      1.01399116	      0.03917345	     76.13072593	     -6.91723726	      4.17098628	     51.87781426	      0.90543867	     -5.91860124	    -14.01371266	      0.00000000	    119.49563103	     -4.40679412	     -1.38720321	    108.40770396	      1.89207137	      4.28380273	    -16.79110155	      0.00000000	     -0.05610593	     -0.99315816	     -0.32686235	     -0.10419433	     -1.32090035	     -0.34729124	     -0.09217644	     -2.41476475	     -0.34729124	     -0.06412347	     -2.41476475	     -0.28600455	     -0.05209997	     -2.02524812	     -0.26557566	     -0.03205893	     -1.53840199	     -0.24514676	     -0.40075907	    -11.23480372	     -1.81791032	      0.00000000	      0.00000000	      0.00000000	      0.00000000	      0.00000001	     67.86167598	     -6.55283757	     12.31633892	     33.49180618	     63.68951822	      0.00000000	      3.90718357	     71.85573037	    -11.82401695	     32.48449444	     33.82650587	     68.67105688	      0.00000000	      3.90718357
